<svg xmlns="http://www.w3.org/2000/svg" version="1.1" xmlns:xlink="http://www.w3.org/1999/xlink" xmlns:svgjs="http://svgjs.com/svgjs" width="1440" height="3000" preserveAspectRatio="none" viewBox="0 0 1440 3000"><g mask="url(&quot;#SvgjsMask1098&quot;)" fill="none"><rect width="1440" height="3000" x="0" y="0" fill="rgba(25, 118, 215, 1)"></rect><path d="M0,1290.466C245.105,1298.826,480.766,1201.653,684.925,1065.764C886.88,931.343,1069.478,754.019,1149.855,525.121C1227.223,304.792,1188.93,61.285,1115.487,-160.383C1050.025,-357.961,893.284,-498.635,758.199,-656.983C621.949,-816.696,522.467,-1034.223,320.664,-1092.082C119.041,-1149.889,-77.116,-1006.651,-280.337,-954.742C-492.674,-900.504,-742.018,-931.677,-900.385,-780.188C-1061.492,-626.078,-1097.223,-382.289,-1111.379,-159.792C-1124.795,51.071,-1054.601,249.755,-978.454,446.845C-897.786,655.635,-825.063,873.881,-655.541,1020.042C-472.818,1177.586,-241.123,1282.241,0,1290.466" fill="#12569d"></path><path d="M1440 3907.318C1604.853 3881.304 1723.257 3747.925 1853.999 3644.195 1971.701 3550.811 2097.497 3465.286 2165.808 3331.465 2235.899 3194.156 2252.685 3038.506 2241.677 2884.736 2230.048 2722.296 2200.934 2555.823 2101.07 2427.179 1998.625 2295.209 1838.016 2233.1440000000002 1684.57 2167.072 1511.723 2092.6459999999997 1329.766 1957.294 1151.784 2018.4279999999999 973.315 2079.73 944.162 2320.6639999999998 821.051 2463.678 698.508 2606.033 491.17100000000005 2676.872 431.62300000000005 2855.017 369.172 3041.848 404.91200000000003 3256.585 497.97400000000005 3430.209 588.614 3599.313 761.394 3702.908 932.557 3789.5969999999998 1090.664 3869.674 1264.937 3934.943 1440 3907.318" fill="#4797ea"></path></g><defs><mask id="SvgjsMask1098"><rect width="1440" height="3000" fill="#ffffff"></rect></mask></defs></svg>