<svg xmlns="http://www.w3.org/2000/svg" version="1.1" xmlns:xlink="http://www.w3.org/1999/xlink" xmlns:svgjs="http://svgjs.com/svgjs" width="1440" height="560" preserveAspectRatio="none" viewBox="0 0 1440 560"><g mask="url(&quot;#SvgjsMask1000&quot;)" fill="none"><rect width="1440" height="560" x="0" y="0" fill="#0e2a47"></rect><path d="M0,500.433C93.957,491.91,187.645,465.274,260.466,405.293C329.166,348.706,351.944,258.545,390.85,178.495C430.839,96.217,488.333,20.702,491.817,-70.713C495.662,-171.609,468.979,-273.509,411.23,-356.333C350.018,-444.123,260.417,-508.143,160.35,-546.101C55.044,-586.047,-63.497,-615.186,-169.288,-576.542C-273.267,-538.56,-343.782,-440.676,-395.788,-342.953C-441.054,-257.895,-441.661,-159.94,-442.269,-63.589C-442.805,21.334,-422.616,100.66,-399.104,182.265C-371.487,278.117,-370.714,393.293,-292.715,455.474C-213.93,518.282,-100.345,509.536,0,500.433" fill="#0b2239"></path><path d="M1440 1002.934C1543.098 1028.243 1653.334 1086.496 1749.603 1041.752 1846.204 996.8530000000001 1893.699 882.571 1920.683 779.52 1945.33 685.395 1921.597 587.837 1892.801 494.897 1867.478 413.166 1815.929 347.1 1765.326 278.103 1710.067 202.75799999999998 1667.703 112.30000000000001 1583.105 72.63 1493.31 30.523000000000025 1385.42 22.698999999999955 1292.065 56.18000000000001 1200.671 88.95800000000003 1135.46 169.20999999999998 1084.086 251.599 1037.885 325.692 1041.568 415.56 1015.927 499.027 984.294 601.998 868.928 702.406 915.802 799.393 963.019 897.0899999999999 1113.621 871.185 1214.772 910.461 1291.99 940.444 1359.5529999999999 983.1859999999999 1440 1002.934" fill="#113255"></path></g><defs><mask id="SvgjsMask1000"><rect width="1440" height="560" fill="#ffffff"></rect></mask></defs></svg>